# xmcd
#
# Track frame offsets: 
#        150
#        16240
#        29401
#        46934
#        60463
#        79848
#        99277
#        117643
#        130449
#        147410
#        165005
#
# Disc length: 2362 seconds
#
# Revision: 0
# Processed by: cddbd v1.5.2PL0 Copyright (c) Steve Scherf et al.
# Submitted via: ExactAudioCopy v1.0b3
#
DISCID=8909380b
DTITLE=Great North - Halves
DYEAR=2012
DGENRE=Indie
TTITLE0=The Spring Tide
TTITLE1=When You Go
TTITLE2=Lead Me To The Light
TTITLE3=To Leave Someone
TTITLE4=I Will Be Made new
TTITLE5=Grace Notes
TTITLE6=Actors
TTITLE7=All Our Lives
TTITLE8=Salt
TTITLE9=Halves
TTITLE10=When You're Letting Go
EXTD=
EXTT0=
EXTT1=
EXTT2=
EXTT3=
EXTT4=
EXTT5=
EXTT6=
EXTT7=
EXTT8=
EXTT9=
EXTT10=
PLAYORDER=
